{"title":"Barren Illusions (Kiyoshi Kurosawa, 1999) DVDRip x264","uid":10750555,"size":1355076162,"categoryP":"video","categoryS":"movies","magnet":"?xt=urn:btih:94370f0ff731b672c129ea379744e15786536a51&amp;dn=Barren+Illusions+%28Kiyoshi+Kurosawa%2C+1999%29+DVDRip+x264&amp;tr=udp%3A%2F%2Ftracker.openbittorrent.com%3A80&amp;tr=udp%3A%2F%2Fopen.demonii.com%3A1337&amp;tr=udp%3A%2F%2Ftracker.coppersurfer.tk%3A6969&amp;tr=udp%3A%2F%2Fexodus.desync.com%3A6969","seeders":1,"leechers":1,"uploader":"rpessoa","files":1,"time":1407868345,"description":"The filmmaker asks if it's unavoidable for young people who are in love to become a couple, to live together and eventually become a family. Oinaru Genei is made of little pieces from the lives of the two main characters, a young man who's a music producer and a girl who works at a postal office. It seems they don't want to move on in their relationship, don't want to grow up.\n\nDirector Kiyoshi Kurosawa explores the human condition in the post millennium. With the aid of his students from the film school of Tokyo, he creates an experimental and unusual love story. By emiel_ (IMDb)\n &lt;a href=&quot;\nhttp://www.imdb.com/title/tt0210200/&quot; rel=&quot;nofollow&quot; target=&quot;_NEW&quot;&gt;\nhttp://www.imdb.com/title/tt0210200/&lt;/a&gt;\n\nGeneral\nUnique ID : 169233313003876586857870522785576818640 (0x7F512687D62CE62AD1F59D23573497D0)\nComplete name : Barren Illusions - 1999 - Kiyoshi Kurosawa.mkv\nFormat : Matroska\nFormat version : Version 2\nFile size : 1.26 GiB\nDuration : 1h 32mn\nOverall bit rate : 1 945 Kbps\nWriting application : HandBrake 0.9.9\nWriting library : libmkv 0.6.5\n\nVideo\nID : 1\nFormat : AVC\nFormat/Info : Advanced Video Codec\nFormat profile : &lt;a class=&quot;__cf_email__&quot; href=&quot;/cdn-cgi/l/email-protection&quot; data-cfemail=&quot;de96b7b9b69e92edf0ee&quot;&gt;[email&amp;#160;protected]&lt;/a&gt;&lt;script cf-hash='f9e31' type=&quot;text/javascript&quot;&gt;\n/* &lt;![CDATA[ */!function(){try{var t=&quot;currentScript&quot;in document?document.currentScript:function(){for(var t=document.getElementsByTagName(&quot;script&quot;),e=t.length;e--;)if(t[e].getAttribute(&quot;cf-hash&quot;))return t[e]}();if(t&amp;&amp;t.previousSibling){var e,r,n,i,c=t.previousSibling,a=c.getAttribute(&quot;data-cfemail&quot;);if(a){for(e=&quot;&quot;,r=parseInt(a.substr(0,2),16),n=2;a.length-n;n+=2)i=parseInt(a.substr(n,2),16)^r,e+=String.fromCharCode(i);e=document.createTextNode(e),c.parentNode.replaceChild(e,c)}}}catch(u){}}();/* ]]&gt; */&lt;/script&gt;\nFormat settings, CABAC : Yes\nFormat settings, ReFrames : 4 frames\nCodec ID : V_MPEG4/ISO/AVC\nDuration : 1h 32mn\nBit rate : 1 750 Kbps\nWidth : 664 pixels\nHeight : 328 pixels\nDisplay aspect ratio : 16:9\nFrame rate : 29.970 fps\nColor space : YUV\nChroma subsampling : 4:2:0\nBit depth : 8 bits\nScan type : Progressive\nBits/(Pixel*Frame) : 0.268\nStream size : 1.11 GiB (88%)\nWriting library : x264 core 130 r2273 b3065e6\nEncoding settings : cabac=1 / ref=3 / deblock=1:-3:-3 / analyse=0x3:0x113 / me=hex / subme=7 / psy=1 / psy_rd=1.00:0.00 / mixed_ref=1 / me_range=16 / chroma_me=1 / trellis=2 / 8x8dct=1 / cqm=0 / deadzone=21,11 / fast_pskip=0 / chroma_qp_offset=-2 / threads=1 / lookahead_threads=1 / sliced_threads=0 / nr=0 / decimate=1 / interlaced=0 / bluray_compat=0 / constrained_intra=0 / bframes=3 / b_pyramid=2 / b_adapt=2 / b_bias=0 / direct=3 / weightb=1 / open_gop=0 / weightp=2 / keyint=300 / keyint_min=30 / scenecut=40 / intra_refresh=0 / rc_lookahead=60 / rc=abr / mbtree=1 / bitrate=1750 / ratetol=1.0 / qcomp=0.60 / qpmin=0 / qpmax=69 / qpstep=4 / ip_ratio=1.40 / aq=1:1.00\nLanguage : English\nDefault : Yes\nForced : No\nColor primaries : BT.601-6 525, BT.1358 525, BT.1700 NTSC, SMPTE 170M\nTransfer characteristics : BT.709-5, BT.1361\nMatrix coefficients : BT.601-6 525, BT.1358 525, BT.1700 NTSC, SMPTE 170M\n\nAudio\nID : 2\nFormat : AC-3\nFormat/Info : Audio Coding 3\nMode extension : CM (complete main)\nCodec ID : A_AC3\nDuration : 1h 32mn\nBit rate mode : Constant\nBit rate : 192 Kbps\nChannel(s) : 2 channels\nChannel positions : Front: L R\nSampling rate : 48.0 KHz\nBit depth : 16 bits\nCompression mode : Lossy\nStream size : 128 MiB (10%)\nLanguage : Japanese\nDefault : Yes\nForced : No\n\nText\nID : 3\nFormat : VobSub\nCodec ID : S_VOBSUB\nCodec ID/Info : The same subtitle format used on DVDs\nLanguage : English\nDefault : No\nForced : No\n\nMenu\n00:00:00.000 : Chapter 1\n00:00:20.787 : Chapter 2\n00:05:18.985 : Chapter 3\n00:08:33.379 : Chapter 4\n00:14:53.592 : Chapter 5\n00:18:10.522 : Chapter 6\n00:20:02.601 : Chapter 7\n00:26:34.459 : Chapter 8\n00:30:42.674 : Chapter 9\n00:33:46.791 : Chapter 10\n00:38:26.137 : Chapter 11\n00:43:30.341 : Chapter 12\n00:53:25.702 : Chapter 13\n00:57:19.669 : Chapter 14\n01:05:55.985 : Chapter 15\n01:08:31.107 : Chapter 16\n01:13:23.632 : Chapter 17\n01:19:56.658 : Chapter 18\n01:28:41.082 : Chapter 19\n01:32:37.752 : Chapter 20","torrent":{"xt":"urn:btih:94370f0ff731b672c129ea379744e15786536a51","amp;dn":"Barren+Illusions+%28Kiyoshi+Kurosawa%2C+1999%29+DVDRip+x264","amp;tr":["udp%3A%2F%2Ftracker.openbittorrent.com%3A80","udp%3A%2F%2Fopen.demonii.com%3A1337","udp%3A%2F%2Ftracker.coppersurfer.tk%3A6969","udp%3A%2F%2Fexodus.desync.com%3A6969"],"infoHash":"94370f0ff731b672c129ea379744e15786536a51","infoHashBuffer":{"type":"Buffer","data":[148,55,15,15,247,49,182,114,193,41,234,55,151,68,225,87,134,83,106,81]},"announce":[],"urlList":[]}}